<svg xmlns="http://www.w3.org/2000/svg" viewBox="0 0 235.51 50.07"><defs><style>.cls-1{fill:#f2f2f2;}</style></defs><title>LOGO_1</title><g id="Calque_2" data-name="Calque 2"><g id="Calque_1-2" data-name="Calque 1"><path class="cls-1" d="M0,49.39V.58H8.14V20.81H18.58V.58h8.13V49.39H18.58V27.79H8.14v21.6Z"/><path class="cls-1" d="M69.89,14l.58,2.37a5,5,0,0,1,3.24-2.05A23.92,23.92,0,0,1,77.53,14h2.59v6.62q-1.23-.14-2.16-.18l-1.73,0a5.83,5.83,0,0,0-3.67.93A4.23,4.23,0,0,0,71,24.44c-.14,1.42-.21,3.11-.21,5.08V49.39H63.2V14Z"/><path class="cls-1" d="M93.58,49.39a28.34,28.34,0,0,1-4.43-.32,5.9,5.9,0,0,1-3.42-1.87,10.82,10.82,0,0,1-2.23-4.83,40.61,40.61,0,0,1-.79-9.11V30.1A40.61,40.61,0,0,1,83.5,21a10.82,10.82,0,0,1,2.23-4.83,5.9,5.9,0,0,1,3.42-1.87A28.34,28.34,0,0,1,93.58,14h2.74a27.75,27.75,0,0,1,4.35.32,5.76,5.76,0,0,1,3.39,1.87A10.94,10.94,0,0,1,106.22,21,42.92,42.92,0,0,1,107,30.1v3.16a42.92,42.92,0,0,1-.75,9.11,10.94,10.94,0,0,1-2.16,4.83,5.76,5.76,0,0,1-3.39,1.87,27.75,27.75,0,0,1-4.35.32ZM90.41,31.68c0,.77,0,1.68,0,2.74s.07,2.1.14,3.13.17,2,.29,2.77a6.05,6.05,0,0,0,.4,1.66,1.66,1.66,0,0,0,1.19.72,15.89,15.89,0,0,0,2.41.14,15.31,15.31,0,0,0,2.34-.14A1.68,1.68,0,0,0,98.41,42a4.29,4.29,0,0,0,.43-1.66c.09-.82.18-1.74.25-2.77s.12-2.08.14-3.13,0-2,0-2.74,0-1.68,0-2.74-.07-2.1-.14-3.13-.17-1.95-.29-2.77a6.57,6.57,0,0,0-.39-1.66,1.68,1.68,0,0,0-1.19-.72,15.31,15.31,0,0,0-2.34-.14,15.89,15.89,0,0,0-2.41.14,1.66,1.66,0,0,0-1.19.72,6.05,6.05,0,0,0-.4,1.66c-.12.82-.21,1.74-.29,2.77s-.12,2.08-.14,3.13S90.41,30.91,90.41,31.68Z"/><path class="cls-1" d="M112.59,0h7.56V15.84a4.67,4.67,0,0,1,3.1-1.66,34.07,34.07,0,0,1,3.81-.21H128c1.29,0,2.48,0,3.56.14a5.36,5.36,0,0,1,2.74,1A5.35,5.35,0,0,1,136,17.71a17.21,17.21,0,0,1,.61,5.19V40.46a17.23,17.23,0,0,1-.61,5.15,4.73,4.73,0,0,1-4.47,3.64c-1.08.09-2.27.14-3.56.14h-.94a30.69,30.69,0,0,1-3.92-.25,5.07,5.07,0,0,1-3.28-1.76l-.57,2h-6.7Zm7.56,37.66c0,1.24,0,2.22.07,2.91a3.3,3.3,0,0,0,.4,1.55,1.33,1.33,0,0,0,1,.61,11.75,11.75,0,0,0,1.8.11h2.45a11.75,11.75,0,0,0,1.8-.11,1.35,1.35,0,0,0,1-.61,3.3,3.3,0,0,0,.4-1.55c0-.69.07-1.67.07-2.91v-12c0-1.24,0-2.22-.07-2.91a3.34,3.34,0,0,0-.4-1.55,1.35,1.35,0,0,0-1-.61,11.75,11.75,0,0,0-1.8-.11h-2.45a11.75,11.75,0,0,0-1.8.11,1.33,1.33,0,0,0-1,.61,3.34,3.34,0,0,0-.4,1.55c0,.69-.07,1.67-.07,2.91Z"/><path class="cls-1" d="M149.24,14l.57,2.37a5,5,0,0,1,3.24-2.05,23.92,23.92,0,0,1,3.82-.32h2.59v6.62q-1.22-.14-2.16-.18l-1.73,0a5.83,5.83,0,0,0-3.67.93,4.19,4.19,0,0,0-1.58,3.13,49.34,49.34,0,0,0-.22,5.08V49.39h-7.56V14Z"/><path class="cls-1" d="M163.35.65h8.13v7.7h-8.13ZM163.56,14h7.78V49.39h-7.78Z"/><path class="cls-1" d="M184.59,14l.57,2a5.07,5.07,0,0,1,3.28-1.76,30.69,30.69,0,0,1,3.92-.25h.58c1.34,0,2.54,0,3.6.14a5.25,5.25,0,0,1,2.7,1A5.35,5.35,0,0,1,201,17.71a16.89,16.89,0,0,1,.61,5.19V49.39H194V25.7c0-1.24,0-2.22-.07-2.91a3.34,3.34,0,0,0-.4-1.55,1.33,1.33,0,0,0-1-.61,11.75,11.75,0,0,0-1.8-.11h-2.09a11.75,11.75,0,0,0-1.8.11,1.35,1.35,0,0,0-1,.61,3.34,3.34,0,0,0-.4,1.55c0,.69-.07,1.67-.07,2.91V49.39h-7.56V14Z"/><rect class="cls-1" x="33.51" y="16.26" width="22" height="11.64"/><path class="cls-1" d="M58.51,30.07h-28v-16h28Zm-22-4.36h16V18.44h-16Z"/><polygon class="cls-1" points="58.51 50.07 30.51 50.07 30.51 35.07 36.51 35.07 36.51 44.07 58.51 44.07 58.51 50.07"/><polygon class="cls-1" points="235.51 49.07 207.51 49.07 207.51 34.07 213.51 34.07 213.51 43.07 235.51 43.07 235.51 49.07"/><rect class="cls-1" x="210.51" y="16.26" width="22" height="11.64"/><path class="cls-1" d="M235.51,30.07h-28v-16h28Zm-22-4.36h16V18.44h-16Z"/></g></g></svg>