<svg id="Icons" xmlns="http://www.w3.org/2000/svg" viewBox="0 0 39.75 39.43"><title>borrow</title><path d="M14.3,32C9.92,32,5.06,32,5,32a3,3,0,0,1-3-3V16a1,1,0,0,1,1-1H29a1,1,0,0,1,1,1s0,2.31,0,3.53a1,1,0,0,1-1,1c-6.32.27-8.35,5.77-8.17,10.4a1,1,0,0,1-.27.72,1,1,0,0,1-.7.32C18.61,32,16.52,32,14.3,32ZM4,17V29a1,1,0,0,0,1,1c.11,0,9.44.08,13.87,0C19,24.64,21.78,19.38,28,18.64c0-.56,0-1.15,0-1.64Z"/><path d="M3,16a1,1,0,0,1-.94-.65l-1.4-3.7A3,3,0,0,1,2.43,7.77L23.16.16l.05,0A3.21,3.21,0,0,1,25.43.3,2.78,2.78,0,0,1,27,2l1.38,3.74a1,1,0,0,1,0,.77,1,1,0,0,1-.57.52l-24.4,8.9A1,1,0,0,1,3,16ZM23.81,2.05,3.14,9.64A1,1,0,0,0,2.54,11l1,2.76L26.12,5.5,25.06,2.65a.81.81,0,0,0-.47-.53A1.17,1.17,0,0,0,23.81,2.05Z"/><path d="M3,22a1,1,0,0,1,0-2l21.31-.07h0a1,1,0,0,1,1,1,1,1,0,0,1-1,1L3,22Z"/><path d="M29.34,39.18A10.31,10.31,0,1,1,39.65,28.87,10.32,10.32,0,0,1,29.34,39.18Zm0-18.62a8.31,8.31,0,1,0,8.31,8.31A8.32,8.32,0,0,0,29.34,20.56Z"/><path d="M33.67,33.71a1,1,0,0,1-.64-.23l-4.66-3.83a1,1,0,0,1,1.26-1.55l4.67,3.83a1,1,0,0,1-.63,1.78Z"/><path d="M29,29.88a.82.82,0,0,1-.26,0A1,1,0,0,1,28,28.62l1.13-4.21a1,1,0,0,1,1.22-.71,1,1,0,0,1,.71,1.22L30,29.14A1,1,0,0,1,29,29.88Z"/></svg>