<svg xmlns="http://www.w3.org/2000/svg" width="36" height="69" viewBox="0 0 36 69">
  <g id="Groupe_40" data-name="Groupe 40" transform="translate(-422 -176)">
    <g id="Groupe_38" data-name="Groupe 38" transform="translate(108)">
      <path id="Tracé_24" data-name="Tracé 24" d="M0,0H36V69L17.781,52.033,0,69Z" transform="translate(314 176)" fill="#03dac5"/>
      <path id="marque-favoris" d="M15.92,12.806a1.653,1.653,0,0,0-1.334-1.125l-3.526-.512L9.483,7.974A1.653,1.653,0,0,0,8,7.053H8a1.653,1.653,0,0,0-1.482.921L4.942,11.169l-3.526.512A1.653,1.653,0,0,0,.5,14.5l2.551,2.487-.6,3.512a1.653,1.653,0,0,0,2.4,1.742L8,20.584l3.154,1.658a1.653,1.653,0,0,0,2.4-1.742l-.6-3.512L15.5,14.5A1.653,1.653,0,0,0,15.92,12.806Z" transform="translate(323.999 189.947)" fill="#f2f2f2"/>
    </g>
  </g>
</svg>
